<svg xmlns="http://www.w3.org/2000/svg" viewBox="0 0 202 62" fill="none">
    <path
        d="M45.8087 33.7917C45.8087 37.429 44.8428 40.0329 42.854 41.7574C40.6751 43.646 37.1709 44.6033 32.4398 44.6033C27.7088 44.6033 24.1752 43.6616 22.0136 41.8023C20.0334 40.1003 19.071 37.4791 19.071 33.7917V0.5H0V35.3296C0 43.468 3.12407 50.2294 9.03871 54.8826C14.6717 59.3199 22.7618 61.663 32.4416 61.663C42.1213 61.663 50.2114 59.3199 55.8444 54.8826C61.7556 50.2294 64.8814 43.4663 64.8814 35.3313V0.5H45.8104V33.7917H45.8087Z"
        fill="currentColor" />
    <path
        d="M89.81 37.9249H109.861C111.687 37.9249 113.246 38.2635 114.134 38.8528C114.651 39.1949 114.97 39.6079 114.97 40.6049C114.97 41.6019 114.649 42.0183 114.134 42.3587C113.246 42.9479 111.687 43.2866 109.861 43.2866H89.81V37.9249ZM112.674 20.2483C112.373 20.4781 111.457 21.0138 109.411 21.0138H89.81V17.4854H109.411C111.666 17.4854 112.591 18.0159 112.821 18.1765C112.99 18.2992 113.168 18.4202 113.168 19.0647C113.168 19.806 112.912 20.0634 112.674 20.2466M127.67 28.6235C130.708 25.7223 132.315 21.876 132.315 17.3074C132.315 7.41165 123.145 0.501722 110.011 0.501722H70.8894V60.3445H110.087C117.125 60.3445 123.091 58.6391 127.337 55.4165C131.71 52.0955 134.117 47.2781 134.117 41.8507C134.117 37.702 132.723 33.9161 130.086 30.8957C129.364 30.068 128.557 29.3112 127.67 28.6252"
        fill="currentColor" />
    <path
        d="M182.929 0.5V33.7917C182.929 37.429 181.963 40.0329 179.974 41.7574C177.795 43.646 174.291 44.6033 169.56 44.6033C164.829 44.6033 161.296 43.6598 159.134 41.8023C157.154 40.0969 156.191 37.4791 156.191 33.7917V0.5H137.12V35.3296C137.12 43.4646 140.244 50.2276 146.157 54.8809C151.79 59.3147 159.884 61.6612 169.56 61.6612C179.236 61.6612 187.33 59.3147 192.963 54.8809C198.874 50.2276 202 43.4646 202 35.3296V0.5H182.929Z"
        fill="currentColor" />
</svg>