<svg xmlns="http://www.w3.org/2000/svg" viewBox="0 0 19 19" fill="none">
    <path
        d="M12.958 6.82113V4.18113C12.958 2.23709 11.382 0.661133 9.43798 0.661133C7.49394 0.661133 5.91798 2.23709 5.91798 4.18113V6.82113M2.03894 8.01086L1.51094 13.6429C1.36082 15.2442 1.28576 16.0449 1.55147 16.6633C1.78488 17.2066 2.19393 17.6557 2.71304 17.9389C3.30396 18.2611 4.10814 18.2611 5.7165 18.2611H13.1595C14.7678 18.2611 15.572 18.2611 16.1629 17.9389C16.682 17.6557 17.0911 17.2066 17.3245 16.6633C17.5902 16.0449 17.5151 15.2442 17.365 13.6429L16.837 8.01086C16.7102 6.65864 16.6469 5.98252 16.3428 5.47136C16.0749 5.02117 15.6792 4.66083 15.206 4.4362C14.6687 4.18113 13.9896 4.18113 12.6315 4.18113L6.2445 4.18113C4.88635 4.18113 4.20727 4.18113 3.66995 4.43619C3.19673 4.66083 2.80103 5.02117 2.5332 5.47136C2.2291 5.98252 2.16572 6.65864 2.03894 8.01086Z"
        stroke="currentColor" stroke-width="1.32" stroke-linecap="round" stroke-linejoin="round" />
</svg>