<svg xmlns="http://www.w3.org/2000/svg" viewBox="0 0 43 43" fill="none">
    <path
        d="M42.921 21.2759C42.921 32.0211 34.9583 40.9045 24.6141 42.346C23.6469 42.4802 22.6574 42.5503 21.6529 42.5503C20.4934 42.5503 19.3548 42.4578 18.2461 42.279C8.11944 40.6481 0.384766 31.8646 0.384766 21.2759C0.384766 9.52584 9.9078 0 21.6544 0C33.4009 0 42.924 9.52584 42.924 21.2759H42.921Z"
        fill="white" />
    <path
        d="M24.6132 17.0833V21.718H30.3449L29.4373 27.9612H24.6132V42.3454C23.646 42.4796 22.6564 42.5496 21.6519 42.5496C20.4925 42.5496 19.3539 42.4572 18.2451 42.2783V27.9612H12.959V21.718H18.2451V16.0472C18.2451 12.5291 21.096 9.67578 24.6146 9.67578V9.67877C24.6251 9.67877 24.634 9.67578 24.6445 9.67578H30.3464V15.0753H26.6206C25.5133 15.0753 24.6146 15.9742 24.6146 17.0818L24.6132 17.0833Z"
        fill="black" />
</svg>