<svg xmlns="http://www.w3.org/2000/svg" viewBox="0 0 20 16" fill="none">
    <path
        d="M1 4.16992L13 4.16992M13 4.16992C13 5.82678 14.3431 7.16992 16 7.16992C17.6569 7.16992 19 5.82678 19 4.16992C19 2.51307 17.6569 1.16992 16 1.16992C14.3431 1.16992 13 2.51307 13 4.16992ZM7 12.1699L19 12.1699M7 12.1699C7 13.8268 5.65685 15.1699 4 15.1699C2.34315 15.1699 1 13.8268 1 12.1699C1 10.5131 2.34315 9.16992 4 9.16992C5.65685 9.16992 7 10.5131 7 12.1699Z"
        stroke="currentColor" stroke-width="1.5" stroke-linecap="round" stroke-linejoin="round" />
</svg>