<svg xmlns="http://www.w3.org/2000/svg" viewBox="0 0 44 43" fill="none">
    <path
        d="M22.2411 0H22.1443C10.4245 0 0.923828 9.50351 0.923828 21.2267V21.3236C0.923828 33.0467 10.4245 42.5503 22.1443 42.5503H22.2411C33.9608 42.5503 43.4616 33.0467 43.4616 21.3236V21.2267C43.4616 9.50351 33.9608 0 22.2411 0Z"
        fill="white" />
    <path
        d="M28.7745 8.65625H15.6122C11.9758 8.65625 9.01758 11.6154 9.01758 15.2528V27.298C9.01758 30.9354 11.9758 33.8945 15.6122 33.8945H28.7745C32.4109 33.8945 35.3691 30.9354 35.3691 27.298V15.2528C35.3691 11.6154 32.4109 8.65625 28.7745 8.65625ZM11.3439 15.2528C11.3439 12.8989 13.259 10.9833 15.6122 10.9833H28.7745C31.1277 10.9833 33.0428 12.8989 33.0428 15.2528V27.298C33.0428 29.6519 31.1277 31.5675 28.7745 31.5675H15.6122C13.259 31.5675 11.3439 29.6519 11.3439 27.298V15.2528Z"
        fill="black" />
    <path
        d="M22.1927 27.4105C25.5742 27.4105 28.3268 24.6585 28.3268 21.2746C28.3268 17.8906 25.5757 15.1387 22.1927 15.1387C18.8097 15.1387 16.0586 17.8906 16.0586 21.2746C16.0586 24.6585 18.8097 27.4105 22.1927 27.4105ZM22.1927 17.4672C24.2925 17.4672 26.0004 19.1756 26.0004 21.2761C26.0004 23.3765 24.2925 25.0849 22.1927 25.0849C20.0929 25.0849 18.385 23.3765 18.385 21.2761C18.385 19.1756 20.0929 17.4672 22.1927 17.4672Z"
        fill="black" />
    <path
        d="M28.8949 16.1287C29.8055 16.1287 30.5477 15.3878 30.5477 14.4755C30.5477 13.5632 29.807 12.8223 28.8949 12.8223C27.9829 12.8223 27.2422 13.5632 27.2422 14.4755C27.2422 15.3878 27.9829 16.1287 28.8949 16.1287Z"
        fill="black" />
</svg>