<svg xmlns="http://www.w3.org/2000/svg" viewBox="0 0 48 58" fill="none">
    <path
        d="M23.8164 0.361328C36.5408 0.361394 46.8584 5.67803 46.8584 12.2354C46.8584 15.597 44.1462 18.6329 39.79 20.7939C44.6625 22.775 47.7363 25.6642 47.7363 28.8818C47.7363 31.5171 45.6736 33.9326 42.25 35.8096C43.2184 37.6724 43.7549 39.7097 43.7549 41.8486C43.7548 50.613 34.7899 57.7167 23.7305 57.7168C12.6709 57.7168 3.70616 50.6131 3.70605 41.8486C3.70605 39.5796 4.31213 37.4246 5.39453 35.4717C2.32496 33.6467 0.500008 31.3631 0.5 28.8818C0.5 25.7362 3.43571 22.9047 8.12012 20.9297C3.60182 18.7626 0.774431 15.6711 0.774414 12.2373C0.774414 5.67794 11.0919 0.361328 23.8164 0.361328ZM24.1182 17.8848C21.4295 17.8852 19.25 22.8792 19.25 29.04C19.25 35.2009 21.4295 40.1949 24.1182 40.1953C26.807 40.1953 28.9873 35.2012 28.9873 29.04C28.9873 22.8789 26.807 17.8848 24.1182 17.8848Z"
        fill="currentColor" />
</svg>