<svg width="12" height="11" viewBox="0 0 12 11" fill="none" xmlns="http://www.w3.org/2000/svg">
<path d="M6.47656 0.477539C6.55941 0.477539 6.62695 0.545087 6.62695 0.62793V4.97754H10.9766C11.0593 4.97754 11.1268 5.04524 11.127 5.12793V6.12793C11.127 6.21077 11.0594 6.27832 10.9766 6.27832H6.62695V10.6279C6.62695 10.7108 6.55941 10.7783 6.47656 10.7783H5.47656C5.39387 10.7781 5.32617 10.7107 5.32617 10.6279V6.27832H0.976562C0.89372 6.27832 0.826172 6.21077 0.826172 6.12793V5.12793C0.826349 5.04524 0.893828 4.97754 0.976562 4.97754H5.32617V0.62793C5.32617 0.545195 5.39387 0.477716 5.47656 0.477539H6.47656Z" fill="black"/>
</svg>
