<svg xmlns="http://www.w3.org/2000/svg" viewBox="0 0 16 16" fill="none">
    <path
        d="M7.85352 4.80859H4.70352C4.23939 4.80859 3.79427 4.62422 3.46608 4.29603C3.13789 3.96784 2.95352 3.52272 2.95352 3.05859C2.95352 2.59446 3.13789 2.14935 3.46608 1.82116C3.79427 1.49297 4.23939 1.30859 4.70352 1.30859C7.15352 1.30859 7.85352 4.80859 7.85352 4.80859ZM7.85352 4.80859H11.0035C11.4676 4.80859 11.9128 4.62422 12.241 4.29603C12.5691 3.96784 12.7535 3.52272 12.7535 3.05859C12.7535 2.59446 12.5691 2.14935 12.241 1.82116C11.9128 1.49297 11.4676 1.30859 11.0035 1.30859C8.55352 1.30859 7.85352 4.80859 7.85352 4.80859ZM7.85352 4.80859L7.85352 15.3086M0.853516 9.70859H14.8535M0.853516 7.04859L0.853516 13.0686C0.853516 13.8527 0.853516 14.2447 1.00611 14.5442C1.14033 14.8076 1.3545 15.0218 1.61793 15.156C1.91741 15.3086 2.30944 15.3086 3.09352 15.3086L12.6135 15.3086C13.3976 15.3086 13.7896 15.3086 14.0891 15.156C14.3525 15.0218 14.5667 14.8076 14.7009 14.5442C14.8535 14.2447 14.8535 13.8527 14.8535 13.0686V7.04859C14.8535 6.26452 14.8535 5.87248 14.7009 5.57301C14.5667 5.30958 14.3525 5.09541 14.0891 4.96119C13.7896 4.8086 13.3976 4.8086 12.6135 4.8086L3.09352 4.80859C2.30944 4.80859 1.91741 4.80859 1.61793 4.96118C1.3545 5.09541 1.14033 5.30958 1.00611 5.57301C0.853516 5.87248 0.853516 6.26452 0.853516 7.04859Z"
        stroke="currentColor" stroke-width="1.32" stroke-linecap="round" stroke-linejoin="round" />
</svg>