<svg xmlns="http://www.w3.org/2000/svg" viewBox="0 0 43 43" fill="none">
    <path
        d="M21.7782 0H21.6814C9.96165 0 0.460938 9.50351 0.460938 21.2267V21.3236C0.460938 33.0467 9.96165 42.5503 21.6814 42.5503H21.7782C33.498 42.5503 42.9987 33.0467 42.9987 21.3236V21.2267C42.9987 9.50351 33.498 0 21.7782 0Z"
        fill="currentColor" />
    <path
        d="M32.0114 15.394V19.4115C31.3095 19.3429 30.3974 19.1834 29.3885 18.8137C28.071 18.3307 27.0904 17.6703 26.4481 17.159V25.2791L26.4317 25.2537C26.4421 25.4147 26.4481 25.5787 26.4481 25.7442C26.4481 29.7766 23.1679 33.0593 19.1352 33.0593C15.1024 33.0593 11.8223 29.7766 11.8223 25.7442C11.8223 21.7117 15.1024 18.4276 19.1352 18.4276C19.5301 18.4276 19.9176 18.4589 20.2961 18.52V22.4795C19.9325 22.3498 19.542 22.2797 19.1352 22.2797C17.2261 22.2797 15.6717 23.833 15.6717 25.7442C15.6717 27.6553 17.2261 29.2087 19.1352 29.2087C21.0443 29.2087 22.5986 27.6538 22.5986 25.7442C22.5986 25.6726 22.5972 25.6011 22.5927 25.5295V9.75H26.6061C26.621 10.0899 26.6344 10.4328 26.6493 10.7727C26.6761 11.442 26.9146 12.0845 27.3304 12.6107C27.8177 13.2294 28.5375 13.9479 29.5479 14.5219C30.4943 15.057 31.3825 15.2881 32.0114 15.3969V15.394Z"
        fill="black" />
</svg>