<svg xmlns="http://www.w3.org/2000/svg" viewBox="0 0 15 16" fill="none">
    <path
        d="M10.3539 3.73164V3.17164C10.3539 2.38757 10.3539 1.99553 10.2013 1.69605C10.0671 1.43263 9.85292 1.21845 9.58949 1.08423C9.29002 0.931641 8.89798 0.931641 8.11391 0.931641H6.99391C6.20983 0.931641 5.8178 0.931641 5.51832 1.08423C5.25489 1.21845 5.04072 1.43263 4.9065 1.69605C4.75391 1.99553 4.75391 2.38757 4.75391 3.17164V3.73164M6.15391 7.58164V11.0816M8.95391 7.58164V11.0816M1.25391 3.73164H13.8539M12.4539 3.73164V11.5716C12.4539 12.7478 12.4539 13.3358 12.225 13.785C12.0237 14.1802 11.7024 14.5014 11.3073 14.7028C10.8581 14.9316 10.27 14.9316 9.09391 14.9316H6.01391C4.8378 14.9316 4.24974 14.9316 3.80053 14.7028C3.40539 14.5014 3.08413 14.1802 2.88279 13.785C2.65391 13.3358 2.65391 12.7478 2.65391 11.5716V3.73164"
        stroke="currentColor" stroke-width="1.05" stroke-linecap="round" stroke-linejoin="round" />
</svg>