<svg xmlns="http://www.w3.org/2000/svg" viewBox="0 0 19 17" fill="none">
    <path
        d="M12.4831 11.9613V3.7946C12.4831 2.86118 12.4831 2.39447 12.3014 2.03795C12.1416 1.72434 11.8867 1.46937 11.5731 1.30959C11.2165 1.12793 10.7498 1.12793 9.81641 1.12793H3.48307C2.54965 1.12793 2.08294 1.12793 1.72642 1.30959C1.41282 1.46937 1.15785 1.72434 0.998062 2.03795C0.816406 2.39447 0.816406 2.86118 0.816406 3.7946V9.2946C0.816406 10.228 0.816406 10.6947 0.998062 11.0512C1.15785 11.3649 1.41282 11.6198 1.72642 11.7796C2.08294 11.9613 2.54965 11.9613 3.48307 11.9613H12.4831ZM12.4831 11.9613H16.1497C16.6165 11.9613 16.8498 11.9613 17.0281 11.8704C17.1849 11.7905 17.3124 11.6631 17.3922 11.5063C17.4831 11.328 17.4831 11.0946 17.4831 10.6279V8.34688C17.4831 8.14306 17.4831 8.04114 17.46 7.94524C17.4396 7.86021 17.406 7.77892 17.3603 7.70436C17.3087 7.62026 17.2367 7.5482 17.0925 7.40407L15.3736 5.68512C15.2295 5.54099 15.1574 5.46893 15.0733 5.4174C14.9988 5.37171 14.9175 5.33804 14.8324 5.31762C14.7365 5.2946 14.6346 5.2946 14.4308 5.2946H12.4831M6.64974 14.0446C6.64974 15.1952 5.717 16.1279 4.56641 16.1279C3.41581 16.1279 2.48307 15.1952 2.48307 14.0446C2.48307 12.894 3.41581 11.9613 4.56641 11.9613C5.717 11.9613 6.64974 12.894 6.64974 14.0446ZM15.8164 14.0446C15.8164 15.1952 14.8837 16.1279 13.7331 16.1279C12.5825 16.1279 11.6497 15.1952 11.6497 14.0446C11.6497 12.894 12.5825 11.9613 13.7331 11.9613C14.8837 11.9613 15.8164 12.894 15.8164 14.0446Z"
        stroke="currentColor" stroke-width="1.32" stroke-linecap="round" stroke-linejoin="round" />
</svg>