<svg xmlns="http://www.w3.org/2000/svg" viewBox="0 0 19 20" fill="none">
    <path
        d="M17.6758 19.251C17.6758 17.8554 17.6758 17.1576 17.5035 16.5898C17.1157 15.3114 16.1153 14.311 14.8369 13.9232C14.2691 13.751 13.5713 13.751 12.1758 13.751H7.17579C5.78022 13.751 5.08244 13.751 4.51464 13.9232C3.23624 14.311 2.23582 15.3114 1.84802 16.5898C1.67578 17.1576 1.67578 17.8554 1.67578 19.251M14.1758 5.75098C14.1758 8.23626 12.1611 10.251 9.67578 10.251C7.1905 10.251 5.17578 8.23626 5.17578 5.75098C5.17578 3.2657 7.1905 1.25098 9.67578 1.25098C12.1611 1.25098 14.1758 3.2657 14.1758 5.75098Z"
        stroke="currentColor" stroke-width="1.5" stroke-linecap="round" stroke-linejoin="round" />
</svg>