<svg viewBox="0 0 34 24" fill="none" xmlns="http://www.w3.org/2000/svg">
    <path
        d="M0 4C0 1.79086 1.79086 0 4 0H30C32.2091 0 34 1.79086 34 4V20C34 22.2091 32.2091 24 30 24H4C1.79086 24 0 22.2091 0 20V4Z"
        fill="#1F72CD" />
    <path fill-rule="evenodd" clip-rule="evenodd"
        d="M6.09517 8.5L2.91406 15.7467H6.7223L7.19441 14.5913H8.27355L8.74566 15.7467H12.9375V14.8649L13.311 15.7467H15.4793L15.8528 14.8462V15.7467H24.5706L25.6307 14.6213L26.6232 15.7467L31.1009 15.7561L27.9097 12.1436L31.1009 8.5H26.6927L25.6608 9.60463L24.6995 8.5H15.2156L14.4013 10.3704L13.5678 8.5H9.7675V9.35186L9.34474 8.5H6.09517ZM6.83238 9.5293H8.68869L10.7987 14.4434V9.5293H12.8322L14.462 13.0527L15.964 9.5293H17.9874V14.7293H16.7562L16.7461 10.6546L14.9512 14.7293H13.8499L12.0449 10.6546V14.7293H9.51212L9.03195 13.5635H6.43778L5.9586 14.7283H4.60156L6.83238 9.5293ZM24.1195 9.5293H19.1133V14.7262H24.042L25.6305 13.0039L27.1617 14.7262H28.7623L26.4358 12.1428L28.7623 9.5293H27.2311L25.6506 11.2319L24.1195 9.5293ZM7.73554 10.4092L6.88086 12.4859H8.58922L7.73554 10.4092ZM20.3496 11.5547V10.6054V10.6045H23.4733L24.8363 12.1226L23.4129 13.649H20.3496V12.6127H23.0807V11.5547H20.3496Z"
        fill="white" />
</svg>