<svg viewBox="0 0 34 24" fill="none" xmlns="http://www.w3.org/2000/svg">
    <path
        d="M4 0.5H30C31.933 0.5 33.5 2.067 33.5 4V20C33.5 21.933 31.933 23.5 30 23.5H4C2.067 23.5 0.5 21.933 0.5 20V4C0.5 2.067 2.067 0.5 4 0.5Z"
        fill="white" />
    <path
        d="M4 0.5H30C31.933 0.5 33.5 2.067 33.5 4V20C33.5 21.933 31.933 23.5 30 23.5H4C2.067 23.5 0.5 21.933 0.5 20V4C0.5 2.067 2.067 0.5 4 0.5Z"
        stroke="#E4E7EC" />
    <path
        d="M26.7109 14.1299H26.7285L28.1465 10.5713H29.1426L26.0791 17.7051H25.1338L26.2725 15.21L24.2627 10.5713H25.2588L26.7109 14.1299ZM21.916 10.4092C22.5936 10.4092 23.1286 10.5941 23.5215 10.958C23.9144 11.322 24.1084 11.8304 24.1084 12.4717V15.5273H23.2314V14.8398H23.1914C22.8099 15.4059 22.3087 15.6885 21.6768 15.6885C21.1416 15.6884 20.6858 15.5276 20.3271 15.2041C19.9741 14.9037 19.7747 14.4581 19.7861 13.9902C19.7862 13.4763 19.98 13.0717 20.3613 12.7656C20.7428 12.4595 21.2558 12.3096 21.8936 12.3096C22.4401 12.3096 22.8843 12.414 23.2373 12.6104V12.3965C23.2373 12.0788 23.1004 11.7783 22.8613 11.5703C22.6165 11.3508 22.3031 11.2295 21.9785 11.2295C21.4662 11.2296 21.0617 11.4487 20.7656 11.8877L19.957 11.374C20.3898 10.7328 21.0449 10.4092 21.916 10.4092ZM17.5723 8.2832C18.1587 8.27172 18.7279 8.49721 19.1436 8.91309C19.9749 9.69874 20.0262 11.0219 19.2461 11.8711L19.1436 11.9746C18.7166 12.3847 18.1928 12.5927 17.5723 12.5928H16.0576V15.5273H15.1406V8.2832H17.5723ZM22.0352 13.0605C21.6652 13.0606 21.352 13.153 21.1016 13.332C20.8567 13.5111 20.7315 13.7364 20.7314 14.0078C20.7314 14.2504 20.8454 14.4756 21.0332 14.6143C21.2382 14.776 21.4889 14.8632 21.7451 14.8574C22.1324 14.8574 22.503 14.7011 22.7764 14.4238C23.078 14.135 23.2314 13.7941 23.2314 13.4014C22.9467 13.1703 22.5477 13.0548 22.0352 13.0605ZM16.0576 11.7031H17.5957C17.9372 11.7145 18.2676 11.5754 18.501 11.3271C18.9792 10.8245 18.9681 10.0155 18.4727 9.53027C18.2393 9.29933 17.9258 9.17296 17.5957 9.17285H16.0576V11.7031Z"
        fill="#3C4043" />
    <path
        d="M12.8936 11.9587C12.8936 11.6756 12.8708 11.3925 12.8253 11.1152H8.95898V12.7154H11.174C11.0829 13.2296 10.7868 13.6917 10.354 13.9806V15.0204H11.6751C12.4495 14.2983 12.8936 13.2296 12.8936 11.9587Z"
        fill="#4285F4" />
    <path
        d="M8.95817 16.0262C10.0628 16.0262 10.9967 15.6565 11.6743 15.021L10.3532 13.9812C9.98311 14.2354 9.5105 14.3798 8.95817 14.3798C7.88768 14.3798 6.98232 13.6461 6.65776 12.6641H5.29688V13.7386C5.99155 15.1423 7.40938 16.0262 8.95817 16.0262Z"
        fill="#34A853" />
    <path
        d="M6.65846 12.6631C6.48761 12.149 6.48761 11.5886 6.65846 11.0687V10H5.29736C4.71078 11.1727 4.71078 12.5592 5.29736 13.7319L6.65846 12.6631Z"
        fill="#FBBC04" />
    <path
        d="M8.95817 9.35369C9.54466 9.34214 10.1084 9.56744 10.5297 9.97759L11.7027 8.78756C10.9568 8.08278 9.97741 7.69573 8.95817 7.70728C7.40938 7.70728 5.99155 8.59692 5.29688 10.0007L6.65776 11.0752C6.98232 10.0874 7.88768 9.35369 8.95817 9.35369Z"
        fill="#EA4335" />
</svg>