<svg viewBox="0 0 34 24" fill="none" xmlns="http://www.w3.org/2000/svg">
    <path
        d="M4 0.5H30C31.933 0.5 33.5 2.067 33.5 4V20C33.5 21.933 31.933 23.5 30 23.5H4C2.067 23.5 0.5 21.933 0.5 20V4C0.5 2.067 2.067 0.5 4 0.5Z"
        fill="white" />
    <path
        d="M4 0.5H30C31.933 0.5 33.5 2.067 33.5 4V20C33.5 21.933 31.933 23.5 30 23.5H4C2.067 23.5 0.5 21.933 0.5 20V4C0.5 2.067 2.067 0.5 4 0.5Z"
        stroke="#E4E7EC" />
    <path
        d="M21.5771 5.03125C25.322 5.03125 28.3584 8.03114 28.3584 11.7314C28.3583 15.4317 25.322 18.4316 21.5771 18.4316C19.8982 18.4315 18.3629 17.8269 17.1787 16.8281C15.9945 17.8267 14.4591 18.4316 12.7803 18.4316C9.03566 18.4314 6.00011 15.4315 6 11.7314C6 8.03127 9.03559 5.03147 12.7803 5.03125C14.459 5.03125 15.9945 5.63533 17.1787 6.63379C18.3628 5.63517 19.8984 5.03135 21.5771 5.03125Z"
        fill="#ED0006" />
    <path
        d="M21.5771 5.03125C25.322 5.03125 28.3584 8.03114 28.3584 11.7314C28.3583 15.4317 25.322 18.4316 21.5771 18.4316C19.8985 18.4315 18.3638 17.8266 17.1797 16.8281C18.6369 15.5993 19.5624 13.7728 19.5625 11.7314C19.5625 9.68988 18.6371 7.86269 17.1797 6.63379C18.3637 5.63545 19.8986 5.03135 21.5771 5.03125Z"
        fill="#F9A000" />
    <path
        d="M17.1787 6.63281C18.6362 7.86171 19.5615 9.6889 19.5615 11.7305C19.5615 13.7718 18.636 15.5983 17.1787 16.8271C15.7217 15.5983 14.7969 13.7716 14.7969 11.7305C14.7969 9.68913 15.7215 7.86171 17.1787 6.63281Z"
        fill="#FF5E00" />
</svg>