<svg viewBox="0 0 34 24" fill="none" xmlns="http://www.w3.org/2000/svg">
    <path
        d="M4 0.5H30C31.933 0.5 33.5 2.067 33.5 4V20C33.5 21.933 31.933 23.5 30 23.5H4C2.067 23.5 0.5 21.933 0.5 20V4C0.5 2.067 2.067 0.5 4 0.5Z"
        fill="white" />
    <path
        d="M4 0.5H30C31.933 0.5 33.5 2.067 33.5 4V20C33.5 21.933 31.933 23.5 30 23.5H4C2.067 23.5 0.5 21.933 0.5 20V4C0.5 2.067 2.067 0.5 4 0.5Z"
        stroke="#E4E7EC" />
    <path fill-rule="evenodd" clip-rule="evenodd"
        d="M10.751 15.8579H8.69129L7.14674 9.79198C7.07343 9.51295 6.91776 9.26627 6.68879 9.15001C6.11737 8.85784 5.4877 8.62531 4.80078 8.50804V8.2745H8.11886C8.57681 8.2745 8.92026 8.62531 8.97751 9.03274L9.77891 13.4083L11.8376 8.2745H13.8401L10.751 15.8579ZM14.9853 15.8578H13.04L14.6418 8.27441H16.5871L14.9853 15.8578ZM19.1035 10.3753C19.1607 9.96689 19.5042 9.73335 19.9049 9.73335C20.5346 9.67471 21.2205 9.79199 21.7929 10.0832L22.1364 8.45042C21.5639 8.21688 20.9343 8.09961 20.3628 8.09961C18.4748 8.09961 17.101 9.15002 17.101 10.6078C17.101 11.7169 18.0741 12.2992 18.761 12.65C19.5042 12.9998 19.7904 13.2334 19.7332 13.5832C19.7332 14.1079 19.1607 14.3414 18.5893 14.3414C17.9024 14.3414 17.2155 14.1665 16.5868 13.8743L16.2433 15.5081C16.9303 15.7992 17.6734 15.9165 18.3603 15.9165C20.4773 15.9741 21.7929 14.9247 21.7929 13.3496C21.7929 11.3661 19.1035 11.2498 19.1035 10.3753ZM28.6005 15.8578L27.0559 8.27441H25.3969C25.0534 8.27441 24.71 8.50795 24.5955 8.85775L21.7354 15.8578H23.7379L24.1375 14.7497H26.598L26.827 15.8578H28.6005ZM25.6837 10.3164L26.2551 13.1744H24.6533L25.6837 10.3164Z"
        fill="#172B85" />
</svg>